<svg width="663" height="730" viewBox="0 0 663 730" fill="none" xmlns="http://www.w3.org/2000/svg">
<path d="M0 0C337.92 0 314.84 0 663 0C663 337.92 663 381.84 663 730C325.08 730 348.16 730 0 730C0 392.08 0 348.16 0 0Z" fill="#FEFEFE"/>
<path d="M619 24.5C621 25.5 621 25.5 621.852 27.5273C633.006 69.4983 613.479 120.332 593 156.5C585.596 168.844 576.791 179.973 567 190.5C566.386 191.179 565.773 191.859 565.141 192.559C547.151 211.663 521.037 220.73 497 229.5C522.499 227.827 548.65 221.092 571 208.5C562.583 231.535 545.593 253.313 529.117 271.195C527.011 273.488 524.975 275.833 522.938 278.188C519.231 282.345 515.319 285.989 511 289.5C509.616 290.641 509.616 290.641 508.203 291.805C480.331 314.3 446.454 324.065 412 331.5C415.397 332.632 418.002 332.629 421.582 332.633C422.558 332.634 422.558 332.634 423.554 332.636C424.936 332.636 426.319 332.635 427.702 332.63C429.767 332.625 431.832 332.63 433.896 332.637C442.643 332.641 451.28 332.25 460 331.5C444.644 351.824 417.527 364.055 395.5 375.5C373.868 386.753 352.331 398.003 335 415.5C334.34 416.126 333.68 416.753 333 417.398C328.915 421.575 326.314 426.335 323.688 431.5C323.349 432.165 323.011 432.83 322.663 433.514C318.75 441.575 317.634 448.886 317.688 457.812C317.692 458.772 317.696 459.731 317.7 460.719C317.912 474.398 320.371 487.434 324.328 500.496C325.304 504.859 325.304 504.859 324 507.5C321.918 509.473 321.918 509.473 319.188 511.562C310.041 518.794 301.401 526.453 294 535.5C293.049 536.628 292.097 537.755 291.145 538.883C279.944 552.274 270.173 566.657 261 581.5C260.01 581.17 259.02 580.84 258 580.5C258.596 577.15 259.422 574.133 260.687 570.976C261.031 570.111 261.375 569.246 261.729 568.355C262.102 567.431 262.475 566.507 262.859 565.555C263.246 564.589 263.632 563.623 264.03 562.628C264.848 560.585 265.669 558.543 266.491 556.501C267.736 553.409 268.974 550.314 270.211 547.219C271.01 545.226 271.809 543.234 272.609 541.242C272.974 540.33 273.339 539.418 273.715 538.479C274.791 535.811 275.889 533.154 277 530.5C277.42 529.492 277.839 528.485 278.272 527.446C278.915 525.957 278.915 525.957 279.571 524.438C279.958 523.534 280.345 522.631 280.743 521.699C282.492 518.639 284.867 517.924 288 516.5C289.331 513.1 289.331 513.1 289 509.5C287.52 506.937 287.52 506.937 285 505.5C281.836 505.114 280.043 505.486 277 506.5C276.814 507.717 276.629 508.934 276.438 510.188C276.333 510.872 276.229 511.556 276.121 512.262C275.872 514.524 275.872 514.524 276.658 516.695C277.121 520.493 275.845 523.211 274.352 526.617C274.063 527.303 273.775 527.99 273.479 528.697C272.539 530.928 271.582 533.151 270.625 535.375C269.651 537.674 268.682 539.975 267.713 542.276C267.066 543.814 266.417 545.351 265.766 546.887C262.549 554.508 259.565 562.211 256.667 569.958C256.338 570.819 256.01 571.68 255.672 572.566C255.394 573.308 255.117 574.05 254.831 574.815C254 576.5 254 576.5 252 577.5C252.146 576.549 252.292 575.597 252.443 574.617C252.996 571.011 253.54 567.405 254.081 563.798C254.315 562.251 254.55 560.704 254.788 559.158C256.829 545.882 258.11 532.874 257.909 519.426C257.842 514.887 257.815 510.349 257.789 505.811C257.763 503.473 257.715 501.135 257.647 498.798C257.08 478.203 257.08 478.203 261.779 472.421C264.396 469.797 267.246 467.698 270.343 465.677C286.662 454.087 297.732 431.057 305.688 413.5C306.199 412.383 306.71 411.267 307.237 410.116C310.908 402.046 314.413 393.912 317.875 385.75C330.752 355.449 344.911 326.085 363 298.5C363.827 297.22 364.654 295.94 365.48 294.66C375.598 279.114 386.695 264.375 399 250.5C400.188 249.125 401.376 247.75 402.562 246.375C412.457 235.132 422.588 224.227 434 214.5C434.995 213.639 435.99 212.778 437.016 211.891C450.975 199.825 465.204 188.154 479.944 177.053C481.921 175.56 483.887 174.055 485.852 172.547C496.217 164.629 506.953 157.296 517.78 150.027C519.897 148.571 521.956 147.057 524 145.5C508.437 152.67 493.448 160.274 479 169.5C478.339 169.92 477.678 170.339 476.997 170.771C460.772 181.134 445.356 192.678 431 205.5C430.134 206.267 429.267 207.034 428.375 207.824C425.901 210.033 423.45 212.265 421 214.5C420.029 215.366 419.059 216.233 418.059 217.125C406.191 227.793 395.054 239.339 385.129 251.844C383.146 254.318 381.099 256.725 379.026 259.124C372.577 266.608 366.722 274.45 361 282.5C360.251 283.547 359.502 284.593 358.73 285.672C345.16 304.94 333.308 325.214 323.023 346.41C321.993 348.513 320.938 350.602 319.879 352.691C312.635 367.224 306.713 382.29 300.713 397.367C300.17 398.728 300.17 398.728 299.616 400.116C298.928 401.84 298.244 403.566 297.563 405.293C297.255 406.067 296.947 406.84 296.629 407.637C296.362 408.313 296.094 408.989 295.819 409.686C295 411.5 295 411.5 293 414.5C295.339 323.755 325.887 233.736 399.359 159.984C404.09 155.534 409.047 151.522 414.313 147.729C416.17 146.376 417.988 144.98 419.805 143.574C429.203 136.336 438.91 129.733 449 123.5C449.774 123.02 450.548 122.54 451.346 122.046C472.84 108.819 495.318 97.2813 517.906 86.0586C519.599 85.2167 519.599 85.2167 521.326 84.3577C526.92 81.5787 532.518 78.8111 538.125 76.0618C566.841 61.9086 594.916 45.7839 619 24.5Z" fill="url(#paint0_linear_2_15)"/>
<path d="M339.813 178.125C345.638 182.635 350.318 188.003 352.922 194.965C353.036 198.667 351.467 200.061 349.125 202.875C337.433 217.539 329.267 234.65 322.129 251.902C321 254.5 321 254.5 320 255.5C307.824 256.498 298.42 251.855 289 244.5C287.668 243.498 286.335 242.498 285 241.5C284.299 241.926 283.597 242.352 282.874 242.791C280.739 244.087 278.603 245.384 276.468 246.68C273.956 248.205 271.445 249.73 268.933 251.255C262.527 255.144 256.121 259.033 249.715 262.922C234.995 271.856 234.995 271.856 220.284 280.805C218.443 281.926 216.602 283.046 214.761 284.166C209.989 287.068 205.221 289.976 200.458 292.893C197.894 294.463 195.328 296.03 192.762 297.597C191.516 298.358 190.271 299.121 189.026 299.886C187.288 300.953 185.547 302.016 183.805 303.078C182.804 303.691 181.804 304.303 180.773 304.935C178.228 306.371 175.739 307.492 173 308.5C173.324 309.351 173.647 310.202 173.981 311.078C176.983 321.156 175.326 331.817 170.711 341.09C165.151 350.976 158.347 356.816 148 361.5C147.34 361.5 146.68 361.5 146 361.5C146 406.38 146 451.26 146 497.5C147.98 498.16 149.96 498.82 152 499.5C162.948 505.237 169.787 514.017 174 525.5C174.239 526.126 174.477 526.753 174.723 527.398C175 529.5 175.781 531.355 175 534.5C174.128 538.949 172.885 540.381 175 544.5C181.075 550.254 189.06 553.817 196.443 557.634C201.991 560.515 207.355 563.719 212.75 566.875C214.925 568.127 217.101 569.377 219.278 570.625C226.311 574.671 233.315 578.767 240.313 582.875C241.207 583.4 241.207 583.4 242.12 583.936C247.069 586.84 252.017 589.747 256.965 592.655C260.927 594.983 264.89 597.31 268.853 599.636C270.693 600.717 272.533 601.798 274.372 602.88C280.539 606.5 286.725 610.071 293 613.5C293.534 612.981 294.068 612.461 294.617 611.926C304.864 602.335 314.059 598.97 327.879 599.223C336.241 599.608 342.885 602.829 349.246 608.133C351.195 609.652 352.652 610.692 355 611.5C357.506 610.657 357.506 610.657 360.059 609.012C361.069 608.416 362.08 607.821 363.122 607.207C364.216 606.541 365.31 605.874 366.438 605.188C367.595 604.498 368.753 603.811 369.912 603.125C372.362 601.672 374.807 600.211 377.249 598.744C380.913 596.546 384.597 594.387 388.289 592.238C400.888 584.901 413.425 577.467 425.914 569.944C432.765 565.824 439.65 561.766 446.563 557.75C455.676 552.448 464.778 547.127 473.857 541.765C475.268 540.932 476.681 540.101 478.094 539.272C493.167 531.49 493.167 531.49 503 518.5C503.584 514.552 503.605 510.646 503.61 506.66C503.626 505.538 503.643 504.416 503.66 503.26C503.708 499.694 503.729 496.129 503.75 492.562C503.778 490.137 503.808 487.712 503.84 485.287C503.914 479.358 503.966 473.429 504 467.5C503.063 467.208 502.126 466.916 501.16 466.615C492.655 463.613 486.166 455.252 482 447.5C477.406 437.625 476.417 426.882 479.563 416.437C483.592 405.524 491.37 395.663 502 390.5C502.99 390.5 503.98 390.5 505 390.5C504.939 382.293 504.862 374.087 504.764 365.881C504.72 362.07 504.681 358.259 504.654 354.447C504.628 350.764 504.587 347.081 504.537 343.399C504.52 341.999 504.509 340.598 504.503 339.198C504.586 326.368 504.586 326.368 498.313 315.625C497.55 314.924 496.786 314.222 496 313.5C496 312.84 496 312.18 496 311.5C497.724 310.245 499.508 309.073 501.313 307.937C507.599 303.864 513.289 299.357 519 294.5C523.112 297.402 525.113 300.024 527.25 304.562C527.75 305.605 528.25 306.648 528.766 307.723C530.772 312.236 531.166 315.954 531.206 320.817C531.215 321.559 531.225 322.301 531.235 323.065C531.267 325.516 531.292 327.967 531.317 330.418C531.337 332.118 531.358 333.817 531.38 335.517C531.435 339.99 531.484 344.463 531.532 348.937C531.583 353.501 531.638 358.066 531.694 362.631C531.801 371.587 531.903 380.544 532 389.5C532.688 389.835 533.375 390.17 534.084 390.514C534.985 390.958 535.887 391.402 536.816 391.859C537.709 392.297 538.603 392.735 539.524 393.186C549.705 398.589 555.469 408.906 559 419.5C559.81 432.56 559.284 443.706 551 454.5C550.32 455.469 549.639 456.439 548.938 457.437C544.492 462.689 537.7 466.999 531 468.5C531.009 469.202 531.018 469.904 531.027 470.628C531.108 477.291 531.168 483.954 531.207 490.617C531.228 494.041 531.256 497.466 531.302 500.89C531.354 504.839 531.373 508.789 531.391 512.738C531.411 513.95 531.432 515.162 531.453 516.411C531.456 528.228 528.448 537.984 520 546.5C513.244 551.91 505.668 556.127 498.139 560.35C495.013 562.104 491.896 563.875 488.778 565.645C488.173 565.987 487.568 566.33 486.945 566.682C481.576 569.729 476.293 572.898 471.016 576.102C465.434 579.462 459.772 582.688 454.125 585.938C443.384 592.118 443.384 592.118 432.688 598.375C432.046 598.754 431.404 599.132 430.743 599.522C429.331 600.355 427.92 601.188 426.509 602.021C421.031 605.25 415.547 608.47 410.063 611.688C409.447 612.049 408.832 612.41 408.198 612.782C397.84 618.858 387.45 624.877 377.036 630.854C375.514 631.729 375.514 631.729 373.961 632.621C373.072 633.131 372.183 633.641 371.267 634.166C369.476 635.22 367.729 636.347 366 637.5C365.562 640.248 365.562 640.248 365.563 643.438C364.888 654.996 360.642 665.311 352.051 673.316C341.797 681.355 330.985 684.56 318 683.5C307.647 681.677 297.347 675.977 291 667.5C286.487 660.27 284.077 654.943 283.516 646.496C282.986 642.431 282.687 640.225 279.845 637.225C276.837 635.264 273.801 633.677 270.563 632.125C268.785 631.19 267.008 630.255 265.233 629.313C263.388 628.34 261.532 627.387 259.675 626.434C253.841 623.405 248.25 619.96 242.625 616.562C233.409 611.068 224.138 605.682 214.813 600.375C206.947 595.898 199.085 591.414 191.267 586.854C189.243 585.677 187.214 584.506 185.181 583.345C180.864 580.862 176.705 578.365 172.738 575.348C169.17 572.699 166.326 570.703 162 569.5C156.607 570.541 152.172 573.561 147.647 576.523C141.543 580.143 131.948 579.211 125.246 578.004C112.649 574.514 103.712 567.645 97.0002 556.5C91.7854 545.679 90.0285 534.554 93.9611 522.977C99.3933 510.029 106.534 504.3 119 497.5C119.33 452.29 119.66 407.08 120 360.5C118.35 360.17 116.7 359.84 115 359.5C103.71 353.166 96.3362 344.013 92.6877 331.562C90.0855 319.127 93.1671 307.975 100 297.5C105.637 289.192 114.641 283.397 124.34 280.937C133.009 279.512 140.384 280.042 148.465 283.527C151.447 284.671 153.794 285.354 157 285.5C159.447 284.379 161.412 283.285 163.625 281.812C164.967 280.964 166.31 280.116 167.653 279.27C168.361 278.815 169.07 278.361 169.8 277.893C173.55 275.518 177.374 273.269 181.188 271C192.329 264.325 203.425 257.576 214.522 250.829C218.75 248.26 222.978 245.692 227.207 243.125C227.798 242.767 228.388 242.408 228.996 242.039C231.928 240.26 234.86 238.481 237.793 236.703C243.472 233.258 249.144 229.801 254.801 226.32C255.869 225.665 256.936 225.01 258.036 224.335C260.05 223.098 262.062 221.857 264.072 220.613C264.958 220.069 265.845 219.525 266.758 218.965C267.533 218.486 268.308 218.008 269.106 217.515C271 216.5 271 216.5 273 216.5C272.938 215.407 272.876 214.314 272.813 213.187C272.856 201.027 278.531 190.397 286.625 181.645C302.063 167.704 322.703 166.61 339.813 178.125Z" fill="url(#paint1_linear_2_15)"/>
<defs>
<linearGradient id="paint0_linear_2_15" x1="331.5" y1="0" x2="331.5" y2="730" gradientUnits="userSpaceOnUse">
<stop stop-color="#F4539F"/>
<stop offset="1" stop-color="#5D2DA5"/>
</linearGradient>
<linearGradient id="paint1_linear_2_15" x1="829.954" y1="308.159" x2="29.8238" y2="526.785" gradientUnits="userSpaceOnUse">
<stop stop-color="#F1539F"/>
<stop offset="1" stop-color="#6830A5"/>
</linearGradient>
</defs>
</svg>
