<?xml version="1.0" encoding="UTF-8"?>
<!-- Generator: https://ezgif.com/png-to-svg -->
<svg version="1.1" xmlns="http://www.w3.org/2000/svg" width="1024" height="1024">
<path d="M0 0 C337.92 0 675.84 0 1024 0 C1024 337.92 1024 675.84 1024 1024 C686.08 1024 348.16 1024 0 1024 C0 686.08 0 348.16 0 0 Z " fill="#FEFEFE" transform="translate(0,0)"/>
<path d="M0 0 C2 1 2 1 2.85 3.03 C7.53 20.63 6.09 40.39 2 58 C1.7 59.31 1.7 59.31 1.4 60.64 C-5.64 90.87 -17.25 121.97 -36 147 C-36.78 148.09 -37.56 149.19 -38.34 150.29 C-59.57 179.55 -88.77 192.88 -122 205 C-114.68 204.5 -107.56 203.75 -100.38 202.25 C-99.52 202.07 -98.67 201.9 -97.79 201.72 C-80.04 197.95 -64.19 192.2 -48 184 C-56.42 207.05 -73.43 228.85 -89.93 246.73 C-92.57 249.62 -95.08 252.6 -97.59 255.6 C-99 257 -99 257 -101 257 C-101 257.66 -101 258.32 -101 259 C-103.99 261.78 -107.22 264.25 -110.43 266.77 C-111.89 267.91 -113.33 269.08 -114.77 270.24 C-141.37 291.15 -174.39 300.29 -207 307 C-203.6 308.13 -201 308.13 -197.42 308.13 C-196.44 308.13 -196.44 308.13 -195.45 308.14 C-194.06 308.14 -192.68 308.13 -191.3 308.13 C-189.23 308.13 -187.17 308.13 -185.1 308.14 C-176.36 308.14 -167.72 307.75 -159 307 C-174.36 327.32 -201.47 339.55 -223.5 351 C-245.13 362.25 -266.67 373.5 -284 391 C-284.66 391.63 -285.32 392.25 -286 392.9 C-290.08 397.07 -292.69 401.83 -295.31 407 C-295.65 407.66 -295.99 408.33 -296.34 409.01 C-300.25 417.08 -301.37 424.39 -301.31 433.31 C-301.31 434.27 -301.3 435.23 -301.3 436.22 C-301.09 449.9 -298.63 462.93 -294.67 476 C-293.7 480.35 -293.7 480.35 -295 483 C-297.05 484.94 -297.05 484.94 -299.75 487 C-309.35 494.61 -318.26 502.57 -325.84 512.25 C-328.06 515.08 -330.4 517.78 -332.75 520.5 C-342.22 531.83 -350.25 544.45 -358 557 C-358.99 556.67 -359.98 556.34 -361 556 C-360.4 552.65 -359.58 549.63 -358.31 546.48 C-357.97 545.61 -357.63 544.75 -357.27 543.85 C-356.9 542.93 -356.52 542.01 -356.14 541.05 C-355.75 540.09 -355.37 539.12 -354.97 538.13 C-354.15 536.09 -353.33 534.04 -352.51 532 C-351.26 528.91 -350.03 525.81 -348.79 522.72 C-347.99 520.73 -347.19 518.73 -346.39 516.74 C-346.03 515.83 -345.66 514.92 -345.29 513.98 C-344.21 511.31 -343.11 508.65 -342 506 C-341.58 504.99 -341.16 503.98 -340.73 502.95 C-340.09 501.46 -340.09 501.46 -339.43 499.94 C-339.04 499.03 -338.66 498.13 -338.26 497.2 C-336.51 494.14 -334.13 493.42 -331 492 C-329.67 488.6 -329.67 488.6 -330 485 C-331.48 482.44 -331.48 482.44 -334 481 C-337.16 480.61 -338.96 480.99 -342 482 C-342.19 483.22 -342.37 484.43 -342.56 485.69 C-342.67 486.37 -342.77 487.06 -342.88 487.76 C-343.13 490.02 -343.13 490.02 -342.34 492.2 C-341.88 495.99 -343.15 498.71 -344.65 502.12 C-344.94 502.8 -345.22 503.49 -345.52 504.2 C-346.46 506.43 -347.42 508.65 -348.38 510.88 C-349.35 513.17 -350.32 515.48 -351.29 517.78 C-351.93 519.31 -352.58 520.85 -353.23 522.39 C-356.45 530.01 -359.43 537.71 -362.33 545.46 C-362.66 546.32 -362.99 547.18 -363.33 548.07 C-363.61 548.81 -363.88 549.55 -364.17 550.31 C-365 552 -365 552 -367 553 C-366.85 552.05 -366.71 551.1 -366.56 550.12 C-366 546.51 -365.46 542.9 -364.92 539.3 C-364.69 537.75 -364.45 536.2 -364.21 534.66 C-362.17 521.38 -360.91 508.35 -361.07 494.9 C-361.12 490.35 -361.14 485.8 -361.16 481.26 C-361.18 478.91 -361.22 476.57 -361.28 474.22 C-361.77 453.55 -361.77 453.55 -357.38 448.06 C-354.56 445.23 -351.39 443.11 -348 441 C-323.85 419.79 -311.59 385.73 -299.27 357.03 C-282.73 318.48 -263.42 281.52 -238 248 C-237.53 247.37 -237.05 246.75 -236.56 246.1 C-221.22 225.99 -204.26 206.46 -185 190 C-184 189.14 -183.01 188.28 -181.98 187.39 C-168.02 175.32 -153.79 163.65 -139.06 152.55 C-137.08 151.06 -135.11 149.56 -133.15 148.05 C-122.78 140.13 -112.05 132.8 -101.22 125.53 C-99.1 124.07 -97.04 122.56 -95 121 C-110.56 128.17 -125.55 135.77 -140 145 C-140.66 145.42 -141.32 145.84 -142 146.27 C-158.23 156.63 -173.65 168.18 -188 181 C-188.88 181.78 -189.76 182.56 -190.66 183.36 C-193.12 185.56 -195.56 187.78 -198 190 C-199 190.91 -200 191.81 -201 192.72 C-208.77 199.78 -216.32 206.92 -223.17 214.89 C-225.15 217.18 -227.2 219.4 -229.25 221.62 C-234.28 227.21 -238.9 233.08 -243.49 239.04 C-245.08 241.1 -246.68 243.16 -248.27 245.22 C-266.81 269.19 -282.75 294.64 -295.98 321.91 C-297.01 324.01 -298.06 326.1 -299.12 328.19 C-306.36 342.72 -312.29 357.79 -318.29 372.87 C-318.83 374.23 -318.83 374.23 -319.38 375.62 C-320.07 377.34 -320.76 379.07 -321.44 380.79 C-321.75 381.57 -322.05 382.34 -322.37 383.14 C-322.64 383.81 -322.91 384.49 -323.18 385.19 C-324 387 -324 387 -326 390 C-323.44 316.08 -303.89 238.83 -259 179 C-258.54 178.38 -258.07 177.76 -257.6 177.12 C-250.92 168.24 -243.72 159.98 -236 152 C-235.29 151.26 -234.57 150.52 -233.84 149.76 C-224.64 140.25 -215.43 131.12 -204.75 123.29 C-202.87 121.91 -201.03 120.49 -199.18 119.06 C-189.78 111.83 -180.08 105.23 -170 99 C-169.23 98.52 -168.45 98.04 -167.65 97.55 C-146.16 84.32 -123.68 72.78 -101.09 61.56 C-99.4 60.72 -99.4 60.72 -97.67 59.86 C-92.08 57.08 -86.48 54.31 -80.87 51.56 C-52.16 37.41 -24.08 21.28 0 0 Z " fill="#DE45A7" transform="translate(789,153)"/>
<path d="M0 0 C5.83 4.51 10.51 9.88 13.11 16.84 C13.22 20.54 11.65 21.94 9.31 24.75 C-2.38 39.41 -10.55 56.53 -17.68 73.78 C-18.81 76.38 -18.81 76.38 -19.81 77.38 C-30.03 78.41 -39.93 74.98 -48 68.69 C-49.27 67.59 -50.55 66.48 -51.81 65.38 C-52.8 64.72 -53.79 64.06 -54.81 63.38 C-55.51 63.8 -56.22 64.23 -56.94 64.67 C-59.07 65.96 -61.21 67.26 -63.34 68.56 C-65.86 70.08 -68.37 71.61 -70.88 73.13 C-77.29 77.02 -83.69 80.91 -90.1 84.8 C-104.82 93.73 -104.82 93.73 -119.53 102.68 C-121.37 103.8 -123.21 104.92 -125.05 106.04 C-129.82 108.94 -134.59 111.85 -139.35 114.77 C-141.92 116.34 -144.48 117.91 -147.05 119.47 C-148.3 120.23 -149.54 121 -150.79 121.76 C-152.52 122.83 -154.27 123.89 -156.01 124.95 C-157.01 125.57 -158.01 126.18 -159.04 126.81 C-161.58 128.25 -164.07 129.37 -166.81 130.38 C-166.49 131.23 -166.17 132.08 -165.83 132.95 C-162.83 143.03 -164.49 153.69 -169.1 162.96 C-174.66 172.85 -181.47 178.69 -191.81 183.38 C-192.47 183.38 -193.13 183.38 -193.81 183.38 C-193.81 228.25 -193.81 273.13 -193.81 319.38 C-191.83 320.04 -189.85 320.69 -187.81 321.38 C-176.86 327.11 -170.03 335.89 -165.81 347.38 C-165.57 348 -165.34 348.63 -165.09 349.27 C-164.81 351.38 -164.81 351.38 -165.59 354.52 C-166.47 358.97 -166.93 362.26 -164.81 366.38 C-158.74 372.13 -150.75 375.69 -143.37 379.51 C-137.82 382.39 -132.46 385.59 -127.06 388.75 C-124.89 390 -122.71 391.25 -120.54 392.5 C-113.5 396.55 -106.5 400.64 -99.5 404.75 C-98.61 405.28 -98.61 405.28 -97.69 405.81 C-92.74 408.72 -87.8 411.62 -82.85 414.53 C-78.89 416.86 -74.92 419.18 -70.96 421.51 C-69.12 422.59 -67.28 423.67 -65.44 424.76 C-59.27 428.38 -53.09 431.95 -46.81 435.38 C-46.28 434.86 -45.75 434.34 -45.2 433.8 C-34.95 424.21 -25.75 420.84 -11.93 421.1 C-3.57 421.48 3.07 424.7 9.43 430.01 C11.38 431.53 12.84 432.57 15.19 433.38 C17.69 432.53 17.69 432.53 20.25 430.89 C21.26 430.29 22.27 429.7 23.31 429.08 C24.4 428.42 25.5 427.75 26.62 427.06 C27.78 426.37 28.94 425.69 30.1 425 C32.55 423.55 34.99 422.09 37.44 420.62 C41.1 418.42 44.78 416.26 48.48 414.11 C61.08 406.78 73.61 399.34 86.1 391.82 C92.95 387.7 99.84 383.64 106.75 379.62 C115.86 374.32 124.97 369 134.04 363.64 C135.46 362.81 136.87 361.98 138.28 361.15 C154.21 352.81 154.21 352.81 163.77 338.45 C164.22 336.2 164.38 334.09 164.46 331.79 C164.49 330.89 164.52 329.99 164.56 329.06 C164.67 324.96 164.75 320.85 164.81 316.75 C164.85 314.59 164.92 312.42 165 310.26 C166.06 298.34 166.06 298.34 162.06 287.72 C159.46 286.19 157.04 285.32 154.19 284.38 C145.76 277.88 140.25 268.12 138.44 257.64 C137.06 245.12 139.64 234.8 147.26 224.63 C151.44 219.74 156.35 215.21 162.19 212.38 C163.18 212.38 164.17 212.38 165.19 212.38 C165.13 204.17 165.05 195.96 164.95 187.76 C164.91 183.94 164.87 180.13 164.84 176.32 C164.81 172.64 164.77 168.96 164.72 165.27 C164.71 163.87 164.7 162.47 164.69 161.07 C164.77 148.24 164.77 148.24 158.5 137.5 C157.74 136.8 156.97 136.1 156.19 135.38 C156.19 134.72 156.19 134.06 156.19 133.38 C157.91 132.12 159.7 130.95 161.5 129.81 C167.79 125.74 173.48 121.23 179.19 116.38 C182.1 119.19 184.75 121.85 186.88 125.31 C187.47 126.25 187.47 126.25 188.07 127.21 C190.76 132.42 191.49 137.25 191.51 143.03 C191.52 143.77 191.53 144.52 191.54 145.28 C191.57 147.72 191.58 150.15 191.6 152.59 C191.62 154.28 191.64 155.98 191.66 157.67 C191.71 162.12 191.75 166.57 191.79 171.02 C191.83 175.56 191.88 180.11 191.93 184.65 C192.03 193.56 192.11 202.47 192.19 211.38 C192.88 211.71 193.56 212.04 194.27 212.39 C195.17 212.83 196.07 213.28 197 213.73 C197.9 214.17 198.79 214.61 199.71 215.06 C208.9 219.94 214.55 228.9 218.19 238.38 C220.99 248.91 220.06 260.68 215.19 270.38 C213.25 273.69 213.25 273.69 211.19 276.38 C210.51 277.34 209.83 278.31 209.12 279.31 C204.68 284.56 197.89 288.87 191.19 290.38 C191.2 291.08 191.21 291.78 191.21 292.5 C191.3 299.17 191.36 305.83 191.39 312.49 C191.42 315.92 191.44 319.34 191.49 322.76 C191.54 326.71 191.56 330.66 191.58 334.61 C191.6 335.83 191.62 337.04 191.64 338.29 C191.64 350.1 188.64 359.86 180.19 368.38 C173.43 373.79 165.86 378 158.33 382.23 C155.2 383.98 152.08 385.75 148.96 387.52 C148.36 387.86 147.76 388.2 147.13 388.56 C141.76 391.6 136.48 394.77 131.2 397.98 C125.62 401.34 119.96 404.56 114.31 407.81 C103.57 413.99 103.57 413.99 92.88 420.25 C92.23 420.63 91.59 421.01 90.93 421.4 C89.52 422.23 88.11 423.06 86.7 423.9 C81.22 427.13 75.73 430.34 70.25 433.56 C69.63 433.92 69.02 434.28 68.39 434.66 C58.03 440.73 47.64 446.75 37.22 452.73 C35.7 453.6 35.7 453.6 34.15 454.5 C33.26 455.01 32.37 455.52 31.45 456.04 C29.66 457.09 27.92 458.22 26.19 459.38 C25.75 462.12 25.75 462.12 25.75 465.31 C25.06 476.87 20.94 485.76 13.19 494.38 C3.26 503 -8.93 506.24 -21.81 505.38 C-32.16 503.58 -42.48 497.84 -48.81 489.38 C-53.33 482.15 -55.74 476.82 -56.3 468.37 C-56.83 464.31 -57.13 462.1 -59.97 459.1 C-62.98 457.14 -66.01 455.55 -69.25 454 C-71.03 453.06 -72.81 452.13 -74.58 451.19 C-76.43 450.21 -78.28 449.26 -80.14 448.31 C-85.97 445.28 -91.56 441.84 -97.19 438.44 C-106.4 432.94 -115.68 427.56 -125 422.25 C-132.87 417.77 -140.73 413.29 -148.55 408.73 C-150.57 407.55 -152.6 406.38 -154.63 405.22 C-158.95 402.74 -163.11 400.24 -167.07 397.22 C-170.64 394.57 -173.49 392.58 -177.81 391.38 C-183.21 392.42 -187.64 395.44 -192.17 398.4 C-198.27 402.02 -207.86 401.09 -214.57 399.88 C-227.16 396.39 -236.1 389.52 -242.81 378.38 C-248.03 367.55 -249.78 356.43 -245.85 344.85 C-240.42 331.9 -233.28 326.17 -220.81 319.38 C-220.48 274.16 -220.15 228.95 -219.81 182.38 C-221.46 182.04 -223.11 181.72 -224.81 181.38 C-236.1 175.04 -243.48 165.89 -247.12 153.44 C-249.73 141 -246.65 129.85 -239.81 119.38 C-234.18 111.07 -225.17 105.27 -215.47 102.81 C-206.8 101.39 -199.43 101.92 -191.35 105.4 C-188.37 106.55 -186.02 107.23 -182.81 107.38 C-180.37 106.25 -178.4 105.16 -176.19 103.69 C-174.85 102.84 -173.5 101.99 -172.16 101.14 C-171.45 100.69 -170.74 100.24 -170.01 99.77 C-166.26 97.39 -162.44 95.14 -158.62 92.88 C-143.86 84.03 -129.16 75.06 -114.45 66.11 C-113.27 65.4 -112.09 64.68 -110.9 63.96 C-107.98 62.19 -105.07 60.41 -102.16 58.61 C-96.38 55.06 -90.58 51.68 -84.57 48.54 C-73.8 43.5 -73.8 43.5 -65.65 35.35 C-64.61 31.89 -64.58 28.68 -64.75 25.11 C-64.9 16.68 -58.7 9.38 -53.15 3.45 C-37.6 -10.34 -17.16 -11.55 0 0 Z " fill="#552AA1" transform="translate(509.8125,306.625)"/>
<path d="M0 0 C0.99 0.5 0.99 0.5 2 1 C1.34 1.99 0.68 2.98 0 4 C-0.17 7.13 -0.17 7.13 0 10 C-2.31 9.67 -4.62 9.34 -7 9 C-7 9.66 -7 10.32 -7 11 C-7.66 11 -8.32 11 -9 11 C-9 11.99 -9 12.98 -9 14 C-8.01 14.5 -8.01 14.5 -7 15 C-6.67 15.99 -6.34 16.98 -6 18 C-12.75 20 -12.75 20 -15 20 C-15 20.99 -15 21.98 -15 23 C-15 23.66 -15 24.32 -15 25 C-13.02 25.99 -13.02 25.99 -11 27 C-11 27.66 -11 28.32 -11 29 C-11.66 29.66 -12.32 30.32 -13 31 C-13.33 31.99 -13.66 32.98 -14 34 C-16.06 35.19 -16.06 35.19 -18 36 C-17.77 37.01 -17.55 38.02 -17.31 39.06 C-16.95 43.64 -17.97 45.94 -20 50 C-20.33 50.99 -20.66 51.98 -21 53 C-21.99 53.5 -21.99 53.5 -23 54 C-22.2 55.05 -22.2 55.05 -21.38 56.12 C-20 59 -20 59 -20.81 62.31 C-21.2 63.2 -21.6 64.09 -22 65 C-21.01 65 -20.02 65 -19 65 C-19 66.32 -19 67.64 -19 69 C-18.34 69 -17.68 69 -17 69 C-17 68.34 -17 67.68 -17 67 C-16.01 67 -15.02 67 -14 67 C-13.9 67.64 -13.79 68.28 -13.69 68.94 C-13.35 69.96 -13.35 69.96 -13 71 C-12.01 71.33 -11.02 71.66 -10 72 C-10 74.64 -10 77.28 -10 80 C-9.34 80 -8.68 80 -8 80 C-8 81.98 -8 83.96 -8 86 C-6.68 85.67 -5.36 85.34 -4 85 C-2.71 87.59 -3.07 89.14 -3.38 92 C-3.47 92.89 -3.56 93.77 -3.65 94.69 C-4 97 -4 97 -5 99 C-5.04 101.33 -5.04 103.67 -5 106 C-4.01 104.51 -4.01 104.51 -3 103 C-2.34 103 -1.68 103 -1 103 C-0.34 103.66 0.32 104.32 1 105 C1.99 105.66 2.98 106.32 4 107 C3.34 107 2.68 107 2 107 C4.11 111.71 4.11 111.71 8 115 C7.01 115.33 6.02 115.66 5 116 C5.33 116.66 5.66 117.32 6 118 C6.61 117.77 7.23 117.54 7.86 117.31 C8.67 117.02 9.48 116.73 10.31 116.44 C11.51 116 11.51 116 12.74 115.56 C15 115 15 115 18 116 C7.71 120.77 -2.75 124.25 -13.69 127.25 C-14.89 127.58 -16.08 127.91 -17.32 128.25 C-25.5 130.44 -33.71 132.3 -42 134 C-38.6 135.13 -36 135.13 -32.42 135.13 C-31.44 135.13 -31.44 135.13 -30.45 135.14 C-29.06 135.14 -27.68 135.13 -26.3 135.13 C-24.23 135.13 -22.17 135.13 -20.1 135.14 C-11.36 135.14 -2.72 134.75 6 134 C-9.36 154.32 -36.47 166.55 -58.5 178 C-80.13 189.25 -101.67 200.5 -119 218 C-119.66 218.63 -120.32 219.25 -121 219.9 C-125.08 224.07 -127.69 228.83 -130.31 234 C-130.65 234.66 -130.99 235.33 -131.34 236.01 C-135.25 244.08 -136.37 251.39 -136.31 260.31 C-136.31 261.27 -136.3 262.23 -136.3 263.22 C-136.09 276.9 -133.63 289.93 -129.67 303 C-128.7 307.35 -128.7 307.35 -130 310 C-132.05 311.94 -132.05 311.94 -134.75 314 C-144.35 321.61 -153.26 329.57 -160.84 339.25 C-163.06 342.08 -165.4 344.78 -167.75 347.5 C-177.22 358.83 -185.25 371.45 -193 384 C-193.99 383.67 -194.98 383.34 -196 383 C-195.4 379.65 -194.58 376.63 -193.31 373.48 C-192.8 372.18 -192.8 372.18 -192.27 370.85 C-191.71 369.47 -191.71 369.47 -191.14 368.05 C-190.75 367.09 -190.37 366.12 -189.97 365.13 C-189.15 363.09 -188.33 361.04 -187.51 359 C-186.26 355.91 -185.03 352.81 -183.79 349.72 C-182.99 347.73 -182.19 345.73 -181.39 343.74 C-180.84 342.37 -180.84 342.37 -180.29 340.98 C-179.21 338.31 -178.11 335.65 -177 333 C-176.58 331.99 -176.16 330.98 -175.73 329.95 C-175.09 328.46 -175.09 328.46 -174.43 326.94 C-174.04 326.03 -173.66 325.13 -173.26 324.2 C-171.51 321.14 -169.13 320.42 -166 319 C-164.67 315.6 -164.67 315.6 -165 312 C-166.48 309.44 -166.48 309.44 -169 308 C-172.16 307.61 -173.96 307.99 -177 309 C-177.19 310.22 -177.37 311.43 -177.56 312.69 C-177.67 313.37 -177.77 314.06 -177.88 314.76 C-178.13 317.02 -178.13 317.02 -177.34 319.2 C-176.88 322.99 -178.15 325.71 -179.65 329.12 C-179.94 329.8 -180.22 330.49 -180.52 331.2 C-181.46 333.43 -182.42 335.65 -183.38 337.88 C-184.35 340.17 -185.32 342.48 -186.29 344.78 C-186.93 346.31 -187.58 347.85 -188.23 349.39 C-191.45 357.01 -194.43 364.71 -197.33 372.46 C-197.66 373.32 -197.99 374.18 -198.33 375.07 C-198.74 376.18 -198.74 376.18 -199.17 377.31 C-200 379 -200 379 -202 380 C-201.78 378.57 -201.78 378.57 -201.56 377.12 C-201 373.51 -200.46 369.9 -199.92 366.3 C-199.69 364.75 -199.45 363.2 -199.21 361.66 C-197.17 348.38 -195.91 335.35 -196.07 321.9 C-196.12 317.35 -196.14 312.8 -196.16 308.26 C-196.18 305.91 -196.22 303.57 -196.28 301.22 C-196.77 280.55 -196.77 280.55 -192.38 275.06 C-189.56 272.23 -186.39 270.11 -183 268 C-158.85 246.79 -146.59 212.73 -134.27 184.03 C-117.73 145.48 -98.42 108.52 -73 75 C-72.53 74.37 -72.05 73.75 -71.56 73.1 C-56.23 52.99 -39.26 33.45 -20 17 C-18.86 16.02 -17.73 15.05 -16.59 14.07 C-11.09 9.34 -5.58 4.63 0 0 Z " fill="#922EAD" transform="translate(624,326)"/>
<path d="M0 0 C0.99 0.5 0.99 0.5 2 1 C1.67 1.99 1.34 2.98 1 4 C0.01 4 -0.98 4 -2 4 C-2 4.99 -2 5.98 -2 7 C-2.99 7.33 -3.98 7.66 -5 8 C-5.99 7.01 -5.99 7.01 -7 6 C-7.99 6.66 -8.98 7.32 -10 8 C-9.41 9.14 -9.41 9.14 -8.81 10.31 C-7.64 15.64 -9.13 19.96 -11 25 C-11.99 26.49 -11.99 26.49 -13 28 C-12.53 28.37 -12.05 28.74 -11.56 29.12 C-9.41 31.71 -9.14 33.67 -9 37 C-9.47 37.43 -9.94 37.86 -10.42 38.31 C-12.66 40.71 -12.69 42.84 -13.12 46.06 C-13.92 51.85 -13.92 51.85 -15 54 C-14.34 54 -13.68 54 -13 54 C-13 54.99 -13 55.98 -13 57 C-13.99 57 -14.98 57 -16 57 C-16 57.66 -16 58.32 -16 59 C-13.67 59.67 -11.33 60.34 -9 61 C-8.37 61.24 -7.74 61.47 -7.09 61.72 C-4.07 62.13 -2.4 60.99 0.25 59.56 C1.14 59.09 2.03 58.62 2.95 58.13 C3.63 57.76 4.3 57.38 5 57 C4.67 56.01 4.34 55.02 4 54 C4.99 53.34 5.98 52.68 7 52 C7 52.66 7 53.32 7 54 C9.64 54 12.28 54 15 54 C12.22 56.21 9.52 57.81 6.28 59.28 C5.36 59.7 4.44 60.13 3.49 60.56 C2.5 61.02 1.52 61.47 0.5 61.94 C-10.81 67.25 -21.46 73.29 -32 80 C-32.66 80.42 -33.33 80.84 -34.01 81.28 C-50.23 91.64 -65.65 103.18 -80 116 C-80.88 116.78 -81.76 117.56 -82.66 118.36 C-85.12 120.56 -87.56 122.78 -90 125 C-91 125.91 -92 126.81 -93 127.72 C-100.77 134.78 -108.32 141.92 -115.17 149.89 C-117.15 152.18 -119.2 154.4 -121.25 156.62 C-126.28 162.21 -130.9 168.08 -135.49 174.04 C-137.08 176.1 -138.68 178.16 -140.27 180.22 C-158.81 204.19 -174.75 229.64 -187.98 256.91 C-189.01 259.01 -190.06 261.1 -191.12 263.19 C-198.36 277.72 -204.29 292.79 -210.29 307.87 C-210.65 308.77 -211.01 309.68 -211.38 310.62 C-212.07 312.34 -212.76 314.07 -213.44 315.79 C-213.75 316.57 -214.05 317.34 -214.37 318.14 C-214.64 318.81 -214.91 319.49 -215.18 320.19 C-216 322 -216 322 -218 325 C-215.44 251.08 -195.89 173.83 -151 114 C-150.54 113.38 -150.07 112.76 -149.6 112.12 C-142.92 103.24 -135.72 94.98 -128 87 C-127.29 86.26 -126.57 85.52 -125.84 84.76 C-116.64 75.25 -107.43 66.12 -96.75 58.29 C-94.87 56.91 -93.03 55.49 -91.18 54.06 C-81.78 46.83 -72.08 40.23 -62 34 C-61.23 33.52 -60.45 33.04 -59.65 32.55 C-42.25 21.84 -24.14 12.39 -6 3 C-4.9 2.41 -3.8 1.81 -2.67 1.2 C-1.35 0.61 -1.35 0.61 0 0 Z M-18 59 C-17.67 59.66 -17.34 60.32 -17 61 C-16.67 60.34 -16.34 59.68 -16 59 C-16.66 59 -17.32 59 -18 59 Z " fill="#852CAB" transform="translate(681,218)"/>
<path d="M0 0 C2.91 2.82 5.56 5.48 7.69 8.94 C8.08 9.57 8.48 10.19 8.89 10.84 C11.57 16.04 12.3 20.87 12.32 26.66 C12.33 27.77 12.33 27.77 12.35 28.91 C12.38 31.34 12.4 33.78 12.41 36.21 C12.43 37.91 12.45 39.6 12.47 41.3 C12.52 45.75 12.56 50.19 12.6 54.64 C12.64 59.19 12.69 63.73 12.74 68.28 C12.84 77.18 12.92 86.09 13 95 C13.69 95.33 14.38 95.67 15.08 96.01 C15.99 96.46 16.89 96.9 17.82 97.36 C18.71 97.8 19.6 98.23 20.52 98.69 C29.72 103.56 35.37 112.52 39 122 C41.8 132.53 40.87 144.31 36 154 C34.06 157.31 34.06 157.31 32 160 C31.32 160.97 30.64 161.94 29.94 162.94 C25.49 168.19 18.7 172.5 12 174 C12.01 174.7 12.02 175.4 12.03 176.13 C12.11 182.79 12.17 189.45 12.21 196.12 C12.23 199.54 12.26 202.97 12.3 206.39 C12.35 210.34 12.37 214.29 12.39 218.24 C12.41 219.45 12.43 220.66 12.45 221.91 C12.46 233.73 9.45 243.48 1 252 C-5.76 257.41 -13.33 261.63 -20.86 265.85 C-23.99 267.6 -27.1 269.38 -30.22 271.14 C-30.83 271.49 -31.43 271.83 -32.05 272.18 C-37.42 275.23 -42.71 278.4 -47.98 281.6 C-53.57 284.96 -59.23 288.19 -64.88 291.44 C-75.62 297.62 -75.62 297.62 -86.31 303.88 C-87.25 304.43 -87.25 304.43 -88.21 304.99 C-92.28 307.38 -96.33 309.79 -100.38 312.22 C-103.02 313.8 -105.67 315.37 -108.32 316.94 C-109.64 317.73 -110.96 318.51 -112.28 319.31 C-114.14 320.42 -116 321.53 -117.86 322.63 C-119.49 323.61 -119.49 323.61 -121.15 324.6 C-124 326 -124 326 -128 326 C-128.33 324.68 -128.66 323.36 -129 322 C-129.66 322 -130.32 322 -131 322 C-131 322.66 -131 323.32 -131 324 C-131.66 324.66 -132.32 325.32 -133 326 C-133 327.32 -133 328.64 -133 330 C-134.98 330.33 -136.96 330.66 -139 331 C-138.98 330.2 -138.96 329.39 -138.94 328.56 C-138.7 326.07 -138.7 326.07 -140 325 C-140.04 323 -140.04 321 -140 319 C-139.34 319 -138.68 319 -138 319 C-138.96 316.67 -138.96 316.67 -142 315 C-142.19 311.88 -142.19 311.88 -142 309 C-141.45 308.85 -140.89 308.71 -140.32 308.55 C-138.06 307.86 -136.06 307.15 -134 306 C-132.71 302.96 -132.71 302.96 -132 300 C-129.94 299.25 -129.94 299.25 -128 299 C-127.67 298.34 -127.34 297.68 -127 297 C-126.34 297 -125.68 297 -125 297 C-125 296.01 -125 295.02 -125 294 C-124.14 293.52 -123.27 293.05 -122.38 292.56 C-112.71 287.2 -103.22 281.56 -93.75 275.85 C-86.68 271.59 -79.58 267.4 -72.44 263.25 C-63.32 257.95 -54.22 252.63 -45.14 247.26 C-43.73 246.43 -42.32 245.6 -40.91 244.77 C-24.97 236.44 -24.97 236.44 -15.42 222.08 C-14.97 219.83 -14.81 217.71 -14.73 215.42 C-14.7 214.52 -14.66 213.62 -14.63 212.69 C-14.52 208.58 -14.44 204.48 -14.38 200.37 C-14.33 198.21 -14.27 196.05 -14.19 193.89 C-13.12 181.96 -13.12 181.96 -17.13 171.35 C-19.73 169.81 -22.14 168.95 -25 168 C-33.42 161.51 -38.94 151.74 -40.75 141.27 C-42.13 128.74 -39.55 118.43 -31.93 108.26 C-27.75 103.36 -22.83 98.83 -17 96 C-16.01 96 -15.02 96 -14 96 C-14.06 87.79 -14.14 79.59 -14.24 71.38 C-14.28 67.57 -14.32 63.76 -14.35 59.95 C-14.37 56.26 -14.41 52.58 -14.46 48.9 C-14.48 47.5 -14.49 46.1 -14.5 44.7 C-14.41 31.87 -14.41 31.87 -20.69 21.12 C-21.83 20.07 -21.83 20.07 -23 19 C-23 18.34 -23 17.68 -23 17 C-21.28 15.75 -19.49 14.57 -17.69 13.44 C-11.4 9.36 -5.71 4.86 0 0 Z " fill="#AD34AE" transform="translate(689,423)"/>
<path d="M0 0 C1.05 1.8 1.05 1.8 2 4 C1.12 7.25 1.12 7.25 0 10 C0.99 10.99 0.99 10.99 2 12 C2.04 14 2.04 16 2 18 C2.19 18.72 2.37 19.44 2.56 20.19 C3 22 3 22 2 25 C2.38 28.51 2.88 31.65 4 35 C3.38 37.35 2.71 39.68 2 42 C1.64 43.99 1.29 45.99 1 48 C1.66 48.33 2.32 48.66 3 49 C2.5 49.99 2.5 49.99 2 51 C2 52.32 2 53.64 2 55 C2.66 55 3.32 55 4 55 C4 55.66 4 56.32 4 57 C3.34 57 2.68 57 2 57 C2.02 58.28 2.04 59.56 2.06 60.88 C2.12 64.75 2.12 64.75 1 67 C1.66 66.34 2.32 65.68 3 65 C3 64.01 3 63.02 3 62 C6.41 62.79 9.69 63.87 13 65 C10.25 67.19 7.63 68.75 4.4 70.12 C3.52 70.5 2.64 70.87 1.74 71.26 C0.81 71.65 -0.11 72.04 -1.06 72.44 C-2 72.84 -2.94 73.24 -3.91 73.65 C-10.21 76.3 -16.52 78.83 -23 81 C3.07 79.94 27.92 71.68 51 60 C42.58 83.05 25.57 104.85 9.07 122.73 C6.43 125.62 3.92 128.6 1.41 131.6 C0 133 0 133 -2 133 C-2 133.66 -2 134.32 -2 135 C-4.99 137.78 -8.22 140.25 -11.43 142.77 C-12.89 143.91 -14.33 145.08 -15.77 146.24 C-29.34 156.91 -43.97 164.74 -61 168 C-61.55 165.92 -62 164.16 -62 162 C-62.66 161.67 -63.32 161.34 -64 161 C-64 159.02 -64 157.04 -64 155 C-64.99 154.67 -65.98 154.34 -67 154 C-67 153.34 -67 152.68 -67 152 C-67.99 152.99 -67.99 152.99 -69 154 C-69.66 154.33 -70.32 154.66 -71 155 C-72.6 148.14 -71.25 141.85 -70 135 C-71.32 135.33 -72.64 135.66 -74 136 C-75.33 133.33 -74.67 131.83 -74 129 C-74.66 129 -75.32 129 -76 129 C-77.1 125.71 -76.8 124.29 -76 121 C-77.65 120.67 -79.3 120.34 -81 120 C-80.67 118.68 -80.34 117.36 -80 116 C-80.99 116 -81.98 116 -83 116 C-83 116.66 -83 117.32 -83 118 C-83.66 118 -84.32 118 -85 118 C-85.33 117.01 -85.66 116.02 -86 115 C-86.99 114.67 -87.98 114.34 -89 114 C-88.34 112.02 -87.68 110.04 -87 108 C-87.66 107.34 -88.32 106.68 -89 106 C-89.62 103.88 -89.62 103.88 -90 102 C-89.01 102 -88.02 102 -87 102 C-87.33 101.01 -87.66 100.02 -88 99 C-87.01 98.01 -87.01 98.01 -86 97 C-84.26 92.24 -83.8 88.94 -85 84 C-84.34 84 -83.68 84 -83 84 C-82.5 83.01 -82.5 83.01 -82 82 C-80.56 79.88 -80.56 79.88 -79 78 C-78.34 78 -77.68 78 -77 78 C-77.67 77.29 -77.67 77.29 -78.35 76.57 C-78.91 75.95 -79.48 75.33 -80.06 74.69 C-80.63 74.07 -81.2 73.46 -81.79 72.82 C-82.39 71.92 -82.39 71.92 -83 71 C-82.67 70.01 -82.34 69.02 -82 68 C-79 67 -79 67 -76 67 C-74.51 66.5 -74.51 66.5 -73 66 C-73.66 65.01 -74.32 64.02 -75 63 C-75 62.01 -75 61.02 -75 60 C-74.34 60 -73.68 60 -73 60 C-73 59.34 -73 58.68 -73 58 C-71.02 58 -69.04 58 -67 58 C-67.04 57.09 -67.08 56.19 -67.12 55.25 C-67 51.88 -66.8 50.76 -65 48 C-63.03 46.27 -61.09 44.69 -59 43.12 C-57.73 42.15 -56.45 41.17 -55.18 40.19 C-54.5 39.67 -53.82 39.16 -53.12 38.63 C-50.95 36.96 -48.81 35.28 -46.67 33.59 C-36.68 25.71 -26.47 18.22 -16 11 C-15.24 10.48 -14.48 9.95 -13.7 9.41 C-9.14 6.26 -4.57 3.13 0 0 Z " fill="#BF35B0" transform="translate(690,277)"/>
<path d="M0 0 C5.83 4.51 10.51 9.88 13.11 16.84 C13.22 20.54 11.65 21.94 9.31 24.75 C-2.38 39.41 -10.55 56.53 -17.68 73.78 C-18.81 76.38 -18.81 76.38 -19.81 77.38 C-30.03 78.41 -39.93 74.98 -48 68.69 C-49.27 67.59 -50.55 66.48 -51.81 65.38 C-53.3 64.38 -53.3 64.38 -54.81 63.38 C-55.51 63.8 -56.22 64.23 -56.94 64.67 C-59.07 65.96 -61.21 67.26 -63.35 68.56 C-65.85 70.08 -68.36 71.6 -70.87 73.12 C-76.73 76.68 -82.59 80.24 -88.45 83.79 C-89.66 84.53 -90.87 85.27 -92.09 86 C-95.05 87.8 -98 89.59 -100.96 91.38 C-106.1 94.49 -111.22 97.61 -116.29 100.82 C-117.11 101.33 -117.92 101.84 -118.77 102.37 C-120.23 103.29 -121.69 104.22 -123.14 105.15 C-129.2 108.96 -135.53 111.07 -142.81 110.38 C-144.81 108.38 -144.81 108.38 -145.81 106.38 C-146.5 108.22 -146.5 108.22 -146.81 110.38 C-146.15 111.37 -145.49 112.36 -144.81 113.38 C-145 115.5 -145 115.5 -145.81 117.38 C-147.3 117.87 -147.3 117.87 -148.81 118.38 C-149.31 118.87 -149.31 118.87 -149.81 119.38 C-151.47 120.06 -153.14 120.73 -154.81 121.38 C-154.81 120.06 -154.81 118.74 -154.81 117.38 C-155.47 117.38 -156.13 117.38 -156.81 117.38 C-157.14 119.02 -157.47 120.68 -157.81 122.38 C-157.15 122.71 -156.49 123.03 -155.81 123.38 C-157.13 123.71 -158.45 124.03 -159.81 124.38 C-159.87 123.69 -159.93 123 -160 122.29 C-160.08 121.39 -160.16 120.49 -160.25 119.56 C-160.33 118.67 -160.41 117.78 -160.5 116.86 C-160.75 114.25 -160.75 114.25 -161.81 111.38 C-161.32 110.38 -161.32 110.38 -160.81 109.38 C-160.15 109.38 -159.49 109.38 -158.81 109.38 C-159.56 106.1 -159.56 106.1 -162.81 104.38 C-162.31 102.21 -161.81 100.38 -160.81 98.38 C-162.3 98.87 -162.3 98.87 -163.81 99.38 C-163.81 98.72 -163.81 98.06 -163.81 97.38 C-160.92 96.55 -158.93 96.38 -155.81 96.38 C-155.81 95.06 -155.81 93.74 -155.81 92.38 C-154.49 92.38 -153.17 92.38 -151.81 92.38 C-151.81 93.69 -151.81 95.01 -151.81 96.38 C-148.12 95.88 -146.21 95.27 -143.81 92.38 C-145.46 92.38 -147.11 92.38 -148.81 92.38 C-149.14 91.38 -149.47 90.39 -149.81 89.38 C-146.41 87.28 -143.76 87.2 -139.81 87.38 C-139.48 85.73 -139.15 84.07 -138.81 82.38 C-138.15 82.38 -137.49 82.38 -136.81 82.38 C-136.81 81.38 -136.81 80.39 -136.81 79.38 C-135.24 78.11 -135.24 78.11 -132.98 76.84 C-132.14 76.35 -131.29 75.86 -130.41 75.35 C-129 74.56 -129 74.56 -127.56 73.75 C-125.54 72.58 -123.51 71.42 -121.49 70.25 C-120.41 69.62 -119.33 69 -118.21 68.35 C-114.73 66.32 -111.27 64.25 -107.82 62.16 C-107.23 61.8 -106.65 61.45 -106.04 61.08 C-103.06 59.27 -100.09 57.44 -97.12 55.61 C-91.72 52.28 -86.32 49.06 -80.66 46.19 C-72.03 42.25 -72.03 42.25 -65.89 35.49 C-64.99 32.05 -64.9 28.75 -64.92 25.21 C-64.68 16.68 -58.81 9.5 -53.15 3.45 C-37.6 -10.34 -17.16 -11.55 0 0 Z " fill="#7D2DAB" transform="translate(509.8125,306.625)"/>
<path d="M0 0 C0.99 0.5 0.99 0.5 2 1 C1.67 1.99 1.34 2.98 1 4 C0.01 4 -0.98 4 -2 4 C-2 4.99 -2 5.98 -2 7 C-2.99 7.33 -3.98 7.66 -5 8 C-5.99 7.01 -5.99 7.01 -7 6 C-7.99 6.66 -8.98 7.32 -10 8 C-9.41 9.14 -9.41 9.14 -8.81 10.31 C-7.64 15.64 -9.13 19.96 -11 25 C-11.99 26.49 -11.99 26.49 -13 28 C-12.53 28.37 -12.05 28.74 -11.56 29.12 C-9.41 31.71 -9.14 33.67 -9 37 C-9.47 37.43 -9.94 37.86 -10.42 38.31 C-12.66 40.71 -12.69 42.84 -13.12 46.06 C-13.92 51.85 -13.92 51.85 -15 54 C-14.34 54 -13.68 54 -13 54 C-13 54.99 -13 55.98 -13 57 C-13.99 57 -14.98 57 -16 57 C-16 57.66 -16 58.32 -16 59 C-13.67 59.67 -11.33 60.34 -9 61 C-8.37 61.24 -7.74 61.47 -7.09 61.72 C-4.07 62.13 -2.4 60.99 0.25 59.56 C1.14 59.09 2.03 58.62 2.95 58.13 C3.63 57.76 4.3 57.38 5 57 C4.67 56.01 4.34 55.02 4 54 C5.49 53.01 5.49 53.01 7 52 C7 52.66 7 53.32 7 54 C9.64 54 12.28 54 15 54 C12.22 56.21 9.52 57.81 6.28 59.28 C5.36 59.7 4.44 60.13 3.49 60.56 C2.01 61.24 2.01 61.24 0.5 61.94 C-10.81 67.25 -21.46 73.29 -32 80 C-32.66 80.42 -33.33 80.84 -34.01 81.28 C-53.34 93.63 -71.13 107.77 -88.01 123.26 C-90 125 -90 125 -93 127 C-93.99 126.01 -94.98 125.02 -96 124 C-96.33 124.99 -96.66 125.98 -97 127 C-97 126.34 -97 125.68 -97 125 C-97.99 125 -98.98 125 -100 125 C-100 125.66 -100 126.32 -100 127 C-99.34 127.33 -98.68 127.66 -98 128 C-98.66 128 -99.32 128 -100 128 C-100 129.32 -100 130.64 -100 132 C-100.66 132 -101.32 132 -102 132 C-102 131.34 -102 130.68 -102 130 C-102.99 130 -103.98 130 -105 130 C-105 128.35 -105 126.7 -105 125 C-107.29 125.88 -107.29 125.88 -108.19 128.69 C-109.06 132.24 -108.84 134.48 -108 138 C-109.32 138.33 -110.64 138.66 -112 139 C-112 138.34 -112 137.68 -112 137 C-112.66 137 -113.32 137 -114 137 C-114.5 137.99 -114.5 137.99 -115 139 C-115.66 138.67 -116.32 138.34 -117 138 C-116.34 136.02 -115.68 134.04 -115 132 C-115.99 131.67 -116.98 131.34 -118 131 C-117.5 130.01 -117.5 130.01 -117 129 C-117.33 128.46 -117.66 127.93 -118 127.38 C-119.11 124.74 -118.97 123.71 -118.56 120.94 C-117.72 117.11 -117.72 117.11 -119 114 C-118.77 112.89 -118.55 111.77 -118.31 110.62 C-117.62 106.92 -117.62 106.92 -119.94 104.06 C-120.62 103.38 -121.3 102.7 -122 102 C-121.34 102 -120.68 102 -120 102 C-121.3 97.92 -121.3 97.92 -123 94 C-122.01 93.01 -122.01 93.01 -121 92 C-121 91.34 -121 90.68 -121 90 C-119.02 89.5 -119.02 89.5 -117 89 C-117.33 87.68 -117.66 86.36 -118 85 C-116.51 84.01 -116.51 84.01 -115 83 C-115.04 81.93 -115.08 80.86 -115.12 79.75 C-114.97 75.06 -113.18 73.13 -110 70 C-109.26 69.23 -108.51 68.46 -107.75 67.67 C-83.17 43.79 -51.43 27.25 -21.5 11.19 C-20.89 10.86 -20.28 10.53 -19.65 10.2 C-15.78 8.12 -11.89 6.06 -8 4 C-7.16 3.55 -6.32 3.09 -5.45 2.63 C-3.66 1.69 -1.84 0.83 0 0 Z M-18 59 C-17.67 59.66 -17.34 60.32 -17 61 C-16.67 60.34 -16.34 59.68 -16 59 C-16.66 59 -17.32 59 -18 59 Z " fill="#B130B0" transform="translate(681,218)"/>
<path d="M0 0 C0.99 0.5 0.99 0.5 2 1 C2 1.66 2 2.32 2 3 C1.34 3 0.68 3 0 3 C-0.66 5.31 -1.32 7.62 -2 10 C-1.34 10 -0.68 10 0 10 C0 11.65 0 13.3 0 15 C-0.5 14.01 -0.5 14.01 -1 13 C-4.11 13.67 -4.11 13.67 -5.19 16.06 C-5.46 16.7 -5.72 17.34 -6 18 C-5.34 18 -4.68 18 -4 18 C-4 17.01 -4 16.02 -4 15 C-3.34 15 -2.68 15 -2 15 C-1.58 16.6 -1.19 18.2 -0.81 19.81 C-0.59 20.71 -0.37 21.6 -0.14 22.52 C0 25 0 25 -1.45 26.82 C-1.96 27.21 -2.47 27.6 -3 28 C-1.3 28.19 -1.3 28.19 0.44 28.38 C2.2 28.68 2.2 28.68 4 29 C4.5 29.99 4.5 29.99 5 31 C5.33 31 5.66 31 6 31 C6.26 35.33 5.29 38.88 4 43 C4.47 43.43 4.95 43.87 5.44 44.31 C7 46 7 46 8 49 C8.37 48.5 8.74 48.01 9.12 47.5 C11.73 45.41 13.72 46 17 46 C19.34 44.62 19.34 44.62 21 43 C21.66 43.33 22.32 43.66 23 44 C21.66 45.02 21.66 45.02 20.29 46.05 C4.69 58 -11.16 72.33 -14 93 C-15.04 111.24 -12.96 128.55 -7.67 146 C-6.7 150.35 -6.7 150.35 -8 153 C-10.05 154.94 -10.05 154.94 -12.75 157 C-22.35 164.61 -31.26 172.57 -38.84 182.25 C-41.06 185.08 -43.4 187.78 -45.75 190.5 C-55.22 201.83 -63.25 214.45 -71 227 C-71.99 226.67 -72.98 226.34 -74 226 C-73.4 222.65 -72.58 219.63 -71.31 216.48 C-70.8 215.18 -70.8 215.18 -70.27 213.85 C-69.71 212.47 -69.71 212.47 -69.14 211.05 C-68.75 210.09 -68.37 209.12 -67.97 208.13 C-67.15 206.09 -66.33 204.04 -65.51 202 C-64.26 198.91 -63.03 195.81 -61.79 192.72 C-60.99 190.73 -60.19 188.73 -59.39 186.74 C-59.03 185.83 -58.66 184.92 -58.29 183.98 C-57.21 181.31 -56.11 178.65 -55 176 C-54.58 174.99 -54.16 173.98 -53.73 172.95 C-53.09 171.46 -53.09 171.46 -52.43 169.94 C-52.04 169.03 -51.66 168.13 -51.26 167.2 C-49.51 164.14 -47.13 163.42 -44 162 C-42.67 158.6 -42.67 158.6 -43 155 C-44.48 152.44 -44.48 152.44 -47 151 C-50.16 150.61 -51.96 150.99 -55 152 C-55.19 153.22 -55.37 154.43 -55.56 155.69 C-55.67 156.37 -55.77 157.06 -55.88 157.76 C-56.13 160.02 -56.13 160.02 -55.34 162.2 C-54.88 165.99 -56.15 168.71 -57.65 172.12 C-57.94 172.8 -58.22 173.49 -58.52 174.2 C-59.46 176.43 -60.42 178.65 -61.38 180.88 C-62.35 183.17 -63.32 185.48 -64.29 187.78 C-64.93 189.31 -65.58 190.85 -66.23 192.39 C-69.45 200.01 -72.43 207.71 -75.33 215.46 C-75.66 216.32 -75.99 217.18 -76.33 218.07 C-76.74 219.18 -76.74 219.18 -77.17 220.31 C-78 222 -78 222 -80 223 C-79.78 221.57 -79.78 221.57 -79.56 220.12 C-79 216.51 -78.46 212.9 -77.92 209.3 C-77.69 207.75 -77.45 206.2 -77.21 204.66 C-75.17 191.38 -73.91 178.35 -74.07 164.9 C-74.12 160.35 -74.14 155.8 -74.16 151.26 C-74.18 148.91 -74.22 146.57 -74.28 144.22 C-74.77 123.55 -74.77 123.55 -70.38 118.06 C-67.56 115.23 -64.39 113.11 -61 111 C-34.58 87.8 -21.9 49.62 -8.47 18.25 C-5.81 12.07 -3.1 5.97 0 0 Z " fill="#5F2AA4" transform="translate(502,483)"/>
<path d="M0 0 C2.48 0.99 2.48 0.99 5 2 C5 17.18 5 32.36 5 48 C4.67 48 4.34 48 4 48 C3.67 45.03 3.34 42.06 3 39 C2.67 39 2.34 39 2 39 C2 27.45 2 15.9 2 4 C1.34 4 0.68 4 0 4 C-0.33 3.01 -0.66 2.02 -1 1 C-0.67 0.67 -0.34 0.34 0 0 Z " fill="#E9CAEA" transform="translate(670,595)"/>
<path d="M0 0 C0 0.99 0 1.98 0 3 C0.12 4.24 0.12 4.24 0.25 5.5 C0 8 0 8 -1.75 9.69 C-4 11 -4 11 -5.94 11.89 C-8.11 13.06 -9.52 14.29 -11.23 16.04 C-11.81 16.62 -12.38 17.2 -12.97 17.8 C-13.56 18.4 -14.15 19 -14.75 19.62 C-15.35 20.24 -15.95 20.85 -16.57 21.48 C-18.05 22.98 -19.53 24.49 -21 26 C-21.66 25.67 -22.32 25.34 -23 25 C-22.38 24.4 -22.38 24.4 -21.75 23.78 C-14 16.21 -6.44 8.74 0 0 Z " fill="#461999" transform="translate(456,577)"/>
<path d="M0 0 C0.33 0 0.66 0 1 0 C1.33 2.31 1.66 4.62 2 7 C2.66 6.34 3.32 5.68 4 5 C3.41 9.43 2.29 13.19 0.56 17.31 C0.13 18.36 -0.3 19.41 -0.75 20.49 C-2 23 -2 23 -4 24 C-2.68 16.08 -1.36 8.16 0 0 Z " fill="#33158E" transform="translate(426,682)"/>
<path d="M0 0 C1.34 4.01 0.26 5.53 -1.31 9.42 C-1.68 10.34 -1.68 10.34 -2.05 11.29 C-2.84 13.26 -3.64 15.22 -4.44 17.19 C-4.97 18.52 -5.51 19.86 -6.04 21.19 C-7.35 24.47 -8.67 27.73 -10 31 C-10.33 31 -10.66 31 -11 31 C-11.08 26.48 -11.1 22.41 -10 18 C-9.34 18.33 -8.68 18.66 -8 19 C-5.36 12.73 -2.72 6.46 0 0 Z " fill="#4B1896" transform="translate(474,512)"/>
<path d="M0 0 C-0.99 1.49 -0.99 1.49 -2 3 C-5.96 2.67 -9.92 2.34 -14 2 C-9.36 -1.1 -5.35 -1.42 0 0 Z " fill="#F2E2F4" transform="translate(593,459)"/>
<path d="M0 0 C1.98 0 3.96 0 6 0 C6.33 0.99 6.66 1.98 7 3 C9.32 4.68 9.32 4.68 12.06 6.19 C12.98 6.72 13.9 7.25 14.85 7.79 C15.56 8.19 16.27 8.59 17 9 C16.01 9.5 16.01 9.5 15 10 C12.38 8.62 9.89 7.18 7.38 5.62 C6.67 5.2 5.96 4.77 5.23 4.34 C3.47 3.26 1.73 2.13 0 1 C0 0.67 0 0.34 0 0 Z " fill="#2D168F" transform="translate(346,705)"/>
<path d="M0 0 C3.63 0 7.26 0 11 0 C10.67 1.65 10.34 3.3 10 5 C8.68 5.33 7.36 5.66 6 6 C6.66 4.68 7.32 3.36 8 2 C5.36 1.67 2.72 1.34 0 1 C0 0.67 0 0.34 0 0 Z " fill="#5B199C" transform="translate(489,728)"/>
<path d="M0 0 C0.33 0 0.66 0 1 0 C1.17 1.44 1.33 2.87 1.5 4.31 C1.59 5.11 1.69 5.91 1.78 6.74 C2.24 11.51 2.24 11.51 1 14 C0.34 14 -0.32 14 -1 14 C-0.67 9.38 -0.34 4.76 0 0 Z " fill="#F5DDF0" transform="translate(729,554)"/>
<path d="M0 0 C1 2 1 2 1 5 C0.01 6.49 0.01 6.49 -1 8 C-2.32 7.67 -3.64 7.34 -5 7 C-3.35 4.69 -1.7 2.38 0 0 Z " fill="#4D1B9A" transform="translate(462,568)"/>
<path d="M0 0 C4.43 1.21 6.98 2.52 10 6 C5.97 5.73 4.43 5.47 1.62 2.44 C0.82 1.23 0.82 1.23 0 0 Z " fill="#361894" transform="translate(380,695)"/>
<path d="M0 0 C-1.12 2.97 -2.22 5.33 -4 8 C-4 5.69 -4 3.38 -4 1 C-2 0 -2 0 0 0 Z " fill="#EDE5F4" transform="translate(474,546)"/>
<path d="M0 0 C0.66 0.33 1.32 0.66 2 1 C1.01 1.33 0.02 1.66 -1 2 C-1.33 2.99 -1.66 3.98 -2 5 C-2.99 5 -3.98 5 -5 5 C-4 2 -4 2 -2.06 0.75 C-1.38 0.5 -0.7 0.25 0 0 Z " fill="#55199A" transform="translate(476,732)"/>
<path d="M0 0 C0.33 0 0.66 0 1 0 C1.33 2.64 1.66 5.28 2 8 C1.01 8.33 0.02 8.66 -1 9 C-0.67 6.03 -0.34 3.06 0 0 Z " fill="#5D149B" transform="translate(474,462)"/>
<path d="M0 0 C0.66 0.33 1.32 0.66 2 1 C0 4 0 4 -3.12 4.69 C-4.07 4.79 -5.02 4.89 -6 5 C-2.25 1.12 -2.25 1.12 0 0 Z " fill="#A919A5" transform="translate(624,249)"/>
<path d="M0 0 C1.06 1.88 1.06 1.88 2 4 C1.67 4.66 1.34 5.32 1 6 C0.34 6 -0.32 6 -1 6 C-1.33 4.35 -1.66 2.7 -2 1 C-1.34 0.67 -0.68 0.34 0 0 Z " fill="#552FA2" transform="translate(426,691)"/>
<path d="M0 0 C0.33 0 0.66 0 1 0 C1 1.98 1 3.96 1 6 C0.01 6 -0.98 6 -2 6 C-1.34 4.02 -0.68 2.04 0 0 Z " fill="#EBE0F2" transform="translate(494,470)"/>
<path d="M0 0 C0.33 0 0.66 0 1 0 C0.67 2.31 0.34 4.62 0 7 C-2 4 -2 4 -2 2 C-1.34 2 -0.68 2 0 2 C0 1.34 0 0.68 0 0 Z " fill="#E5DDF1" transform="translate(459,638)"/>
<path d="M0 0 C1.32 0.33 2.64 0.66 4 1 C2.68 1.99 1.36 2.98 0 4 C0 2.68 0 1.36 0 0 Z " fill="#EBE5F3" transform="translate(445,586)"/>
<path d="M0 0 C0.66 0.99 1.32 1.98 2 3 C1.01 3.66 0.02 4.32 -1 5 C-0.67 3.35 -0.34 1.7 0 0 Z " fill="#F2E0F2" transform="translate(614,331)"/>
<path d="M0 0 C0.66 0 1.32 0 2 0 C1.34 1.32 0.68 2.64 0 4 C-0.33 3.01 -0.66 2.02 -1 1 C-0.67 0.67 -0.34 0.34 0 0 Z " fill="#E9CEEC" transform="translate(555,300)"/>
<path d="M0 0 C1.98 0.99 1.98 0.99 4 2 C3.01 2.33 2.02 2.66 1 3 C0.67 2.01 0.34 1.02 0 0 Z " fill="#E5E1EF" transform="translate(347,707)"/>
</svg>
